<?xml version="1.0" encoding="utf-8"?>
<!-- Generator: Adobe Illustrator 21.0.0, SVG Export Plug-In . SVG Version: 6.00 Build 0)  -->
<svg width='20' version="1.1" id="Layer_1" xmlns="http://www.w3.org/2000/svg" xmlns:xlink="http://www.w3.org/1999/xlink" x="0px" y="0px"
	 viewBox="0 0 36 36" style="enable-background:new 0 0 36 36;" xml:space="preserve">
<style type="text/css">
	
		.st0{fill-rule:evenodd;clip-rule:evenodd;fill:#FFFFFE;stroke:#FFFFFF;stroke-width:0.5;stroke-linejoin:bevel;stroke-miterlimit:10;}
	.st1{fill:none;}
</style>
<path class="st0" d="M22.5,3.9c-0.2,0-0.4,0.2-0.4,0.4v8.5h-8.1V4.3c0-0.2-0.2-0.4-0.4-0.4H5.2C5,3.9,4.8,4.1,4.8,4.3v27.4
	c0,0.2,0.2,0.4,0.4,0.4h8.3c0.2,0,0.4-0.2,0.4-0.4v-8.5h8.1v8.5c0,0.2,0.2,0.4,0.4,0.4h8.3c0.2,0,0.4-0.2,0.4-0.4V4.3
	c0-0.2-0.2-0.4-0.4-0.4H22.5z M22.9,4.7h7.2L25.2,10c-0.2-0.1-0.4-0.2-0.6-0.2c-0.1,0-0.1,0-0.2,0L22.9,4.7z M6,4.7h7.1V5l-1.7,5.5
	L6,4.7z M5.6,18.5V5l5.6,6l-2.5,8.4c0,0,0,0-0.1,0c-0.3,0-0.5,0.1-0.7,0.3L5.6,18.5z M25.1,11.9c0.4-0.2,0.6-0.6,0.6-1
	c0-0.3-0.1-0.5-0.2-0.7l4.8-5.2v13.4l-2.8,1.4L25.1,11.9z M22.9,6.1l1.2,3.9c-0.3,0.2-0.6,0.6-0.6,1c0,0.2,0.1,0.5,0.2,0.6l-0.8,0.9
	V6.1z M11.7,10.9l1.3-4.5v5.9L11.7,10.9z M9.5,20.5c0-0.1,0-0.1,0-0.2c0-0.3-0.2-0.6-0.4-0.8l2.5-8.2l1.5,1.6c0,0.4,0.3,0.7,0.7,0.8
	l4,4.2l-4.1,4.4h-0.2c-0.1,0-0.2,0-0.2,0.1L9.5,20.5z M18.3,17.9l4-4.3c0.3-0.1,0.5-0.3,0.6-0.6l1.1-1.2c0.2,0.1,0.4,0.2,0.6,0.2
	c0,0,0.1,0,0.1,0l2.4,8.1l-4.4,2.3c-0.1,0-0.1-0.1-0.2-0.1h-0.1L18.3,17.9z M14.4,13.7h7.4l-3.7,3.9L14.4,13.7z M18.1,18.2l3.8,4.1
	h-7.6L18.1,18.2z M27.7,20.3l2.7-1.4v7.6l-0.8,0.1L27.7,20.3z M5.6,26.6v-7.6l2.2,1.1c0,0.1,0,0.1,0,0.2c0,0.3,0.2,0.6,0.4,0.8
	l-1.7,5.7L5.6,26.6z M22.9,22.8L22.9,22.8l4.4-2.3l1.9,6.3l-1.6,0.3c-0.1-0.3-0.4-0.5-0.7-0.5c-0.1,0-0.3,0-0.4,0.1L22.9,22.8z
	 M13.1,22.7v0.2l-4,4.3l-2.2-0.4l1.7-5.7c0,0,0,0,0,0c0.3,0,0.5-0.1,0.7-0.3L13.1,22.7z M22.9,27.4v-3.9l3.3,3.5
	c-0.1,0.1-0.1,0.3-0.1,0.4l-2.3,0.4L22.9,27.4z M9.6,27.3l3.5-3.8v3.8l-0.9,0.5L9.6,27.3z M29.7,27.1l0.6-0.1v2.2L29.7,27.1z
	 M5.6,27l0.7,0.1l-0.7,2.4V27z M27.6,27.8c0.1-0.1,0.1-0.2,0.1-0.3l1.6-0.3l1,3.4v0.2L27.6,27.8z M6.8,27.2l2,0.4l-3.1,3.3L6.8,27.2
	z M9.2,27.7l2.4,0.5l-5.4,2.8L9.2,27.7z M24.4,28.2l1.8-0.3c0.1,0.3,0.4,0.4,0.7,0.4c0.1,0,0.3,0,0.4-0.1L30,31L24.4,28.2z
	 M22.9,27.9l0.2,0.1l-0.2,0V27.9z M12.9,28l0.2-0.1V28L12.9,28z M22.9,29.9v-1.5l0.8-0.2l5.6,2.9L22.9,29.9z M12.3,28.3l0.8,0.2v1.5
	l-6.5,1.3L12.3,28.3z M22.9,30.4l4.6,0.9h-4.6V30.4z M13.1,30.4v0.9H8.5L13.1,30.4z"/>
<rect x="-75.5" y="3.9" class="st1" width="26.4" height="28.2"/>
</svg>
