<?xml version="1.0" encoding="utf-8"?>
<!-- Generator: Adobe Illustrator 24.1.1, SVG Export Plug-In . SVG Version: 6.00 Build 0)  -->
<svg version="1.1" id="Layer_1" xmlns="http://www.w3.org/2000/svg" xmlns:xlink="http://www.w3.org/1999/xlink" x="0px" y="0px"
	 viewBox="0 0 128 128" style="enable-background:new 0 0 128 128;" xml:space="preserve">
<style type="text/css">
	.st0{clip-path:url(#SVGID_2_);fill:url(#SVGID_3_);}
</style>
<g>
	<g>
		<defs>
			<path id="SVGID_1_" d="M46.8,108.56v3.24H30.63L46.8,108.56z M81.2,108.56l16.17,3.24H81.2V108.56z M43.85,101.09l2.95,0.59v5.34
				l-22.68,4.54L43.85,101.09z M81.2,107.02v-5.34l2.95-0.59l19.73,10.47L81.2,107.02z M45.96,99.97l0.84-0.44v0.61L45.96,99.97z
				 M81.2,99.53l0.84,0.44l-0.84,0.16V99.53z M86.48,100.62l6.19-1.24c0.47,0.94,1.42,1.58,2.52,1.58c0.52,0,1-0.14,1.41-0.39
				l9.49,10.45L86.48,100.62z M33.25,98.97l8.27,1.66l-18.88,10.02L33.25,98.97z M24.71,97.26l6.84,1.37l-10.72,11.8L24.71,97.26z
				 M97.65,99.52c0.21-0.36,0.34-0.77,0.38-1.2l5.62-1.13l3.66,12.44v0.54L97.65,99.52z M20.68,96.45l2.59,0.52l-2.59,8.77V96.45z
				 M105.11,96.9l2.22-0.45v7.97L105.11,96.9z M34.43,97.66L46.8,84.05v13.78l-3.17,1.68L34.43,97.66z M81.2,97.82v-14.2l11.62,12.8
				c-0.28,0.43-0.44,0.94-0.47,1.49l-7.99,1.6L81.2,97.82z M33.68,74.22L46.8,81.1v0.73L32.73,97.32l-7.59-1.52l6.03-20.47
				c0.06,0,0.11,0.01,0.17,0.01C32.28,75.34,33.12,74.9,33.68,74.22 M81.2,81.41V81.1l15.35-8.05l6.68,22.68l-5.44,1.09
				c-0.45-1.02-1.44-1.73-2.59-1.73c-0.46,0-0.89,0.11-1.28,0.31L81.2,81.41z M20.68,94.91V67.4l7.65,4.01
				c-0.05,0.23-0.08,0.48-0.08,0.73c0,1.17,0.61,2.19,1.52,2.75l-6.08,20.62L20.68,94.91z M97.88,72.35l9.44-4.95v27.51l-2.64,0.53
				L97.88,72.35z M64.19,64.89L77.46,79.5H50.92L64.19,64.89z M51.31,48.49h25.77L64.19,62.68L51.31,48.49z M65.2,63.79l13.95-15.36
				c1.05-0.24,1.85-1.12,2.02-2.22l3.93-4.33c0.63,0.44,1.38,0.69,2.18,0.69c0.1,0,0.2-0.01,0.29-0.02l8.55,29.03l-15.58,8.17
				c-0.23-0.15-0.5-0.25-0.8-0.25h-0.27L65.2,63.79z M34.35,72.87c0.05-0.23,0.09-0.48,0.09-0.73c0-1.17-0.61-2.19-1.52-2.75
				l8.67-29.41l5.22,5.75c0,1.5,1.11,2.67,2.49,2.74l13.9,15.31L48.91,79.5h-0.65c-0.29,0-0.57,0.09-0.8,0.25L34.35,72.87z
				 M42.07,38.32l4.73-16.05v21.26L42.07,38.32z M81.2,20.95l4.15,14.08c-1.18,0.69-1.98,2-1.98,3.5c0,0.84,0.26,1.63,0.69,2.28
				l-2.86,3.14V20.95z M88.98,42.16c1.3-0.66,2.2-2.03,2.2-3.62c0-0.93-0.31-1.78-0.81-2.46l16.95-18.67v48.3l-9.88,5.18
				L88.98,42.16z M20.68,65.71V16.98l19.74,21.74l-8.91,30.24c-0.06,0-0.11-0.01-0.17-0.01c-0.94,0-1.78,0.43-2.34,1.12L20.68,65.71
				z M21.98,16.2H46.8v0.86l-5.89,19.98L21.98,16.2z M81.34,16.2h25.07L89.27,35.07c-0.58-0.36-1.26-0.57-1.99-0.57
				c-0.18,0-0.36,0.02-0.53,0.04L81.34,16.2z M79.74,13.17c-0.81,0-1.46,0.68-1.46,1.51v30.78H49.73V14.68
				c0-0.83-0.66-1.51-1.47-1.51H19.21c-0.81,0-1.47,0.68-1.47,1.51v98.63c0,0.84,0.65,1.51,1.47,1.51h29.05
				c0.81,0,1.47-0.68,1.47-1.51V82.53h28.54v30.78c0,0.84,0.65,1.51,1.46,1.51h29.05c0.81,0,1.47-0.68,1.47-1.51V14.68
				c0-0.83-0.66-1.51-1.47-1.51H79.74z"/>
		</defs>
		<clipPath id="SVGID_2_">
			<use xlink:href="#SVGID_1_"  style="overflow:visible;"/>
		</clipPath>
		
			<linearGradient id="SVGID_3_" gradientUnits="userSpaceOnUse" x1="-435.8397" y1="4063.5684" x2="-434.2054" y2="4063.5684" gradientTransform="matrix(42.2236 -35.5736 32.7991 45.7954 -114849.6719 -201503.5)">
			<stop  offset="0" style="stop-color:#F08465"/>
			<stop  offset="0.8444" style="stop-color:#F5BF48"/>
			<stop  offset="1" style="stop-color:#F6CA42"/>
		</linearGradient>
		<polygon class="st0" points="52.56,164.07 155.07,76.57 75.44,-36.07 -27.07,51.43 		"/>
	</g>
</g>
</svg>
